<?xml version="1.0" encoding="UTF-8"?>
<svg width="32px" height="32px" viewBox="0 0 32 32" version="1.1" xmlns="http://www.w3.org/2000/svg" xmlns:xlink="http://www.w3.org/1999/xlink">
    <!-- Generator: Sketch 52.1 (67048) - http://www.bohemiancoding.com/sketch -->
    <title>brandmark_32</title>
    <desc>Created with Sketch.</desc>
    <defs>
        <path d="M16,32 C7.163444,32 0,24.836556 0,16 C0,7.163444 7.163444,0 16,0 C24.836556,0 32,7.163444 32,16 C32,24.836556 24.836556,32 16,32 Z M16,30.6782609 C24.1065796,30.6782609 30.6782609,24.1065796 30.6782609,16 C30.6782609,7.89342037 24.1065796,1.32173913 16,1.32173913 C7.89342037,1.32173913 1.32173913,7.89342037 1.32173913,16 C1.32173913,24.1065796 7.89342037,30.6782609 16,30.6782609 Z M10.2231976,16.0939333 C10.9709811,16.0939333 11.6420594,15.6268921 11.9130583,14.9178641 C12.0794722,14.4824669 12.4915653,14.1956681 12.9507613,14.1956681 L19.0562922,14.1956681 C19.5154882,14.1956681 19.9275813,14.4824669 20.0939952,14.9178641 C20.3649941,15.6268921 21.0360724,16.0939333 21.783856,16.0939333 L24.4000792,16.0939338 C24.5693041,16.0939338 24.706488,16.232667 24.706488,16.403803 C24.706488,19.217738 22.5488469,21.3523523 19.8872618,21.3523523 L18.0779904,21.3523523 C16.8778776,21.3523523 15.6611219,21.4120285 14.2460351,22.5301957 C13.5148365,23.107971 12.8748354,23.4484016 12.3260317,23.5514874 C12.1565173,23.5833287 11.9935746,23.4701706 11.9620891,23.2987418 C11.9547833,23.2589639 11.9551059,23.2181368 11.9630393,23.1784821 C12.1951773,22.0181557 12.0141018,21.3894183 11.4198127,21.2922699 C9.11069742,20.9147992 7.34297189,18.9508202 7.34297189,16.403803 C7.34297189,16.2326668 7.48015595,16.0939334 7.64938106,16.0939334 L10.2231976,16.0939333 Z M21.5271363,13.6490991 C21.0699833,13.6895159 20.6349718,13.4398944 20.431722,13.0205204 C20.1007373,12.3375854 19.3923374,11.9310861 18.6478807,11.9969033 L12.5695131,12.5342901 C11.8250564,12.6001073 11.1972709,13.1247383 10.9886693,13.855378 C10.860572,14.3040463 10.475064,14.6262097 10.0179109,14.6666265 L7.72388304,14.8694408 C7.70666552,14.8696504 7.68375431,14.8708838 7.65514943,14.873141 C7.38249304,14.894657 7.26395938,14.7875237 7.29954845,14.5517411 C7.6763492,12.3633961 9.39549212,10.6300867 11.5967401,10.435475 L19.2874352,9.7555428 C21.4950831,9.56036527 23.491133,10.9744241 24.2361886,13.0739615 C24.2883947,13.2816848 24.2265263,13.3990316 24.0505835,13.4260019 L21.5271363,13.6490991 Z" id="path-1"></path>
    </defs>
    <g id="brandmark_32" stroke="none" stroke-width="1" fill="none" fill-rule="evenodd">
        <g id="Brandmark">
            <mask id="mask-2" fill="white">
                <use xlink:href="#path-1"></use>
            </mask>
            <use id="Combined-Shape" fill="#FFFFFF" xlink:href="#path-1"></use>
        </g>
    </g>
</svg>