<?xml version="1.0" encoding="UTF-8"?>
<svg width="164px" height="33px" viewBox="0 0 164 33" version="1.1" xmlns="http://www.w3.org/2000/svg" xmlns:xlink="http://www.w3.org/1999/xlink">
    <!-- Generator: Sketch 56.3 (81716) - https://sketch.com -->
    <title>TextNow_Logotype</title>
    <desc>Created with Sketch.</desc>
    <g id="Layout" stroke="none" stroke-width="1" fill="none" fill-rule="evenodd">
        <g id="Asset_exports" transform="translate(-2314.000000, -339.000000)" fill="#FFFFFF">
            <path d="M2349.01708,353.3975 C2348.63757,352.6 2348.10626,351.9475 2347.49905,351.3675 C2346.81594,350.7875 2346.05693,350.28 2345.22201,349.9175 C2344.3871,349.555 2343.40038,349.3375 2342.41366,349.3375 C2341.35104,349.3375 2340.44023,349.555 2339.60531,349.9175 C2338.7704,350.28 2338.01139,350.7875 2337.32827,351.3675 C2336.64516,351.9475 2336.18975,352.6725 2335.81025,353.3975 C2335.50664,354.05 2335.27894,354.63 2335.20304,355.2825 L2349.62429,355.2825 C2349.47249,354.63 2349.32068,353.9775 2349.01708,353.3975 Z M2431.59772,361.445 L2433.19165,361.445 C2435.54459,361.445 2437.51803,359.56 2437.51803,357.1675 C2437.51803,354.8475 2435.62049,352.89 2433.19165,352.89 L2426.28463,352.89 C2423.93169,352.89 2421.95825,354.775 2421.95825,357.1675 C2421.95825,359.27 2423.55218,361.0825 2425.60152,361.3725 C2426.51233,361.5175 2425.98102,362.46 2425.98102,363.2575 C2425.98102,363.765 2426.81594,363.33 2428.10626,362.3875 C2429.47249,361.5175 2430.5351,361.445 2431.59772,361.445 Z M2349.24478,361.155 L2353.64706,363.33 C2353.26755,364.2 2352.73624,364.925 2352.12903,365.65 C2351.14231,366.665 2350.1556,367.535 2349.09298,368.1875 C2348.03036,368.84 2346.89184,369.275 2345.75332,369.565 C2344.6148,369.855 2343.55218,370 2342.64137,370 C2340.89564,370 2339.22581,369.6375 2337.70778,368.985 C2336.18975,368.3325 2334.82353,367.39 2333.68501,366.23 C2332.54649,365.07 2331.63567,363.6925 2331.02846,362.17 C2330.34535,360.6475 2330.04175,358.98 2330.04175,357.3125 C2330.04175,355.5 2330.34535,353.8325 2331.02846,352.2375 C2331.71157,350.715 2332.62239,349.3375 2333.76091,348.1775 C2334.89943,347.0175 2336.26565,346.1475 2337.78368,345.495 C2339.30171,344.8425 2340.97154,344.5525 2342.71727,344.5525 C2344.3871,344.5525 2345.98102,344.8425 2347.49905,345.495 C2349.01708,346.1475 2350.3833,347.0175 2351.52182,348.105 C2352.66034,349.1925 2353.57116,350.4975 2354.33017,352.02 C2355.01328,353.5425 2355.39279,355.21 2355.39279,356.95 C2355.39279,357.385 2355.39279,357.82 2355.31689,358.255 C2355.31689,358.7625 2355.24099,359.0525 2355.24099,359.27 L2355.16509,359.6325 L2335.43074,359.6325 C2335.65844,360.5025 2336.03795,361.2275 2336.49336,361.88 C2337.02467,362.6775 2337.63188,363.2575 2338.31499,363.765 C2338.9981,364.2725 2339.75712,364.635 2340.51613,364.8525 C2341.27514,365.07 2342.03416,365.215 2342.71727,365.215 C2344.3112,365.215 2345.60152,364.8525 2346.74004,364.055 C2347.87856,363.2575 2348.63757,362.46 2349.16888,361.445 L2349.24478,361.155 Z M2324.19734,341 L2324.19734,344.8425 C2324.19734,344.915 2324.27324,345.06 2324.42505,345.06 L2329.20683,345.06 L2329.20683,348.25 C2329.20683,348.975 2328.59962,349.555 2327.91651,349.555 L2324.19734,349.555 L2324.19734,363.1125 C2324.19734,363.6925 2324.27324,364.1275 2324.57685,364.4175 C2324.88046,364.7075 2325.25996,364.8525 2325.86717,364.8525 L2329.20683,364.8525 L2329.20683,369.275 L2324.95636,369.275 C2322.75522,369.275 2321.16129,368.695 2320.09867,367.6075 C2319.11195,366.5925 2318.65655,365.1425 2318.65655,363.1125 L2318.65655,349.555 L2316,349.555 L2316,345.06 L2318.65655,345.06 L2318.65655,342.305 C2318.65655,341.58 2319.26376,341 2319.94687,341 L2324.19734,341 Z M2386.66414,345.06 L2391.67362,345.06 L2391.67362,349.555 L2386.66414,349.555 L2386.66414,363.1125 C2386.66414,363.6925 2386.74004,364.1275 2387.04364,364.4175 C2387.34725,364.7075 2387.72676,364.8525 2388.33397,364.8525 L2391.67362,364.8525 L2391.67362,369.275 L2387.42315,369.275 C2385.22201,369.275 2383.62808,368.695 2382.56546,367.6075 C2381.57875,366.5925 2381.12334,365.1425 2381.12334,363.1125 L2381.12334,349.555 L2379.75712,349.555 C2378.9981,349.555 2378.46679,348.975 2378.46679,348.25 L2378.46679,345.06 L2380.89564,345.06 C2380.97154,345.06 2381.12334,344.9875 2381.12334,344.8425 L2381.12334,341 L2385.37381,341 C2386.13283,341 2386.66414,341.58 2386.66414,342.305 L2386.66414,345.06 L2386.66414,345.06 Z M2353.95066,345.06 L2360.47818,345.06 L2365.79127,352.5275 L2371.02846,345.06 L2377.55598,345.06 L2368.82732,356.4425 L2378.54269,369.275 L2372.01518,369.275 L2365.79127,360.43 L2359.49146,369.275 L2352.96395,369.275 L2362.75522,356.4425 L2353.95066,345.06 Z M2410.04175,369.275 L2410.04175,354.8475 C2410.04175,352.8175 2408.37192,351.15 2406.24668,351.15 C2404.12144,351.15 2402.45161,352.8175 2402.45161,354.8475 L2402.45161,369.275 L2394.78558,369.275 L2394.78558,345.06 L2401.38899,345.06 C2401.9203,345.06 2402.37571,345.495 2402.37571,346.0025 C2402.75522,345.785 2403.05882,345.495 2403.43833,345.35 C2404.72865,344.6975 2406.17078,344.4075 2407.76471,344.4075 C2413.60911,344.4075 2416.94877,347.38 2417.48008,352.89 C2418.01139,351.0775 2418.9981,349.41 2420.36433,348.0325 C2422.64137,345.5675 2425.75332,344.4075 2429.62429,344.4075 C2433.41935,344.4075 2436.53131,345.64 2438.88425,348.0325 C2439.56736,348.7575 2440.17457,349.4825 2440.62998,350.3525 L2438.73245,345.06 L2447.08159,345.06 L2450.57306,357.53 L2454.06452,345.06 L2460.66793,345.06 L2464.15939,357.53 L2467.65085,345.06 L2476,345.06 L2467.57495,369.275 L2460.97154,369.275 L2457.40417,356.8775 L2453.83681,369.275 L2447.2334,369.275 L2442.14801,354.775 C2442.29981,355.8625 2442.29981,356.66 2442.29981,357.1675 C2442.29981,360.7925 2441.16129,363.8375 2438.88425,366.23 C2436.53131,368.695 2433.34345,369.9275 2429.62429,369.9275 C2425.82922,369.9275 2422.71727,368.695 2420.36433,366.23 C2419.074,364.925 2418.16319,363.4025 2417.63188,361.6625 L2417.63188,369.275 L2410.04175,369.275 Z" id="Brand_TextNow_Logotype"></path>
        </g>
    </g>
</svg>